<svg version="1.1"
      xmlns="http://www.w3.org/2000/svg"
      xmlns:xlink="http://www.w3.org/1999/xlink"  id="snapshot-74597" width="250" height="250" viewBox="0 0 250 250"><desc>This image was made on Patterninja.com</desc><defs>
<!-- image 37767 -->
<g id="transformed-37767" data-image="37767" transform="translate(-108, -103.54399999999997) rotate(0, 108, 104.54399999999997)"><g><svg version="1.1" width="216px" height="209.08799999999994px" viewBox="0 0 216 209.08799999999994"><g id="original-37767"><svg xmlns="http://www.w3.org/2000/svg" viewBox="0 0 70 68" xmlns:xlink="http://www.w3.org/1999/xlink" version="1.1" preserveAspectRatio="xMidYMid meet">
  <path fill-rule="evenodd" d="M14 65c9.113 0 11-2.853 11-8 0-.169-.02-.832-.025-1h20.05c0 .168-.025.831-.025 1 0 5.147 1.887 8 11 8v3H14v-3z" fill="rgba(81, 96, 120, 1)" stroke="none"/>
  <rect width="70" height="54" y="2" fill-rule="evenodd" rx="6" fill="rgba(111, 130, 164, 1)" stroke="none"/>
  <path fill-rule="evenodd" d="M70 47V5.998A5.993 5.993 0 0 0 64.002 0H5.998A5.995 5.995 0 0 0 0 5.998V47h70z" fill="rgba(165, 181, 211, 1)" stroke="none"/>
  <circle cx="35" cy="52" r="3" fill-rule="evenodd" fill="rgba(80, 96, 121, 1)" stroke="none"/>
</svg>
</g></svg></g></g>
<!-- /image 37767 -->

<!-- image 22660 -->
<g id="transformed-22660" data-image="22660" transform="translate(167.72800073950822, 184.99038550421662) rotate(358, 43.27199926049177, 52.009614495783374)"><g><svg version="1.1" width="86.54399852098354px" height="104.01922899156675px" viewBox="0 0 86.54399852098354 104.01922899156675"><g id="original-22660"><svg xmlns="http://www.w3.org/2000/svg" viewBox="0 0 40 48" xmlns:xlink="http://www.w3.org/1999/xlink" version="1.1" preserveAspectRatio="xMidYMid meet">
  <path fill-rule="evenodd" d="M28.785 24.235c0 7.704-6.245 13.95-13.95 13.95-7.704 0-13.95-6.246-13.95-13.95 0-7.704 6.246-13.95 13.95-13.95 7.705 0 13.95 6.246 13.95 13.95" fill="rgba(255, 255, 255, 1)" stroke="none"/>
  <path fill-rule="evenodd" d="M31.665 27.115c0 7.704-6.246 13.95-13.95 13.95-7.704 0-13.95-6.246-13.95-13.95 0-7.705 6.246-13.95 13.95-13.95 7.704 0 13.95 6.245 13.95 13.95" fill="rgba(237, 152, 109, 1)" stroke="none"/>
  <path fill-rule="evenodd" d="M14.835 11.185c-7.196 0-13.05 5.854-13.05 13.05 0 7.196 5.854 13.05 13.05 13.05 7.196 0 13.05-5.854 13.05-13.05 0-7.196-5.854-13.05-13.05-13.05zm0 27.9c-8.189 0-14.85-6.662-14.85-14.85 0-8.189 6.661-14.85 14.85-14.85s14.85 6.661 14.85 14.85c0 8.188-6.661 14.85-14.85 14.85z" fill="rgba(103, 26, 29, 1)" stroke="none"/>
  <path fill-rule="evenodd" d="M16.949 12.805c-5.18 1.388-10.886-3.114-10.886-3.114s2.691-6.753 7.871-8.14C19.113.163 24.82 4.665 24.82 4.665s-2.691 6.752-7.871 8.14" fill="rgba(255, 255, 255, 1)" stroke="none"/>
  <path fill-rule="evenodd" d="M19.829 15.685c-5.18 1.387-10.887-3.115-10.887-3.115s2.692-6.752 7.871-8.14C21.993 3.042 27.7 7.544 27.7 7.544s-2.692 6.753-7.871 8.141" fill="rgba(45, 176, 141, 1)" stroke="none"/>
  <path fill-rule="evenodd" d="M7.186 9.39c1.506 1.024 5.747 3.56 9.531 2.545 3.796-1.017 6.192-5.33 6.98-6.969-1.505-1.023-5.746-3.56-9.531-2.546-3.785 1.014-6.189 5.33-6.98 6.97zm7.669 4.581c-4.756 0-9.137-3.406-9.35-3.574a.899.899 0 0 1-.278-1.04c.116-.293 2.921-7.188 8.474-8.676 5.55-1.488 11.429 3.082 11.677 3.277a.9.9 0 0 1 .278 1.04c-.117.293-2.922 7.189-8.474 8.676a8.95 8.95 0 0 1-2.327.297z" fill="rgba(103, 26, 29, 1)" stroke="none"/>
  <path fill-rule="evenodd" d="M8.444 16.945a.901.901 0 0 1-.864-.651c-.013-.047-1.396-4.761-4.238-8.138a.9.9 0 0 1 1.377-1.159c3.094 3.676 4.531 8.591 4.591 8.799a.9.9 0 0 1-.866 1.149" fill="rgba(103, 26, 29, 1)" stroke="none"/>
  <path fill-rule="evenodd" d="M1.548 6.193a.9.9 0 0 1-.503-.154 8.565 8.565 0 0 0-.598-.368.899.899 0 1 1 .876-1.572c.249.138.492.288.729.448a.9.9 0 0 1-.504 1.646" fill="rgba(103, 26, 29, 1)" stroke="none"/>
  <path fill-rule="evenodd" d="M36.885 31.975c0 6.909-5.601 12.51-12.51 12.51s-12.51-5.601-12.51-12.51h25.02" fill="rgba(255, 255, 255, 1)" stroke="none"/>
  <path fill-rule="evenodd" d="M39.765 34.855c0 6.909-5.601 12.51-12.51 12.51s-12.51-5.601-12.51-12.51h25.02" fill="rgba(237, 152, 109, 1)" stroke="none"/>
  <path fill-rule="evenodd" d="M12.799 32.875c.462 5.983 5.477 10.71 11.576 10.71s11.114-4.727 11.576-10.71H12.799zm11.576 12.51c-7.394 0-13.41-6.016-13.41-13.41a.9.9 0 0 1 .9-.9h25.02a.9.9 0 0 1 .9.9c0 7.394-6.016 13.41-13.41 13.41z" fill="rgba(103, 26, 29, 1)" stroke="none"/>
  <path fill-rule="evenodd" d="M24.375 41.215a.9.9 0 0 1-.9-.9v-4.766a.9.9 0 0 1 1.8 0v4.766a.9.9 0 0 1-.9.9" fill="rgba(103, 26, 29, 1)" stroke="none"/>
  <path fill-rule="evenodd" d="M30.273 38.772a.9.9 0 0 1-.637-.263l-3.001-3.002a.898.898 0 0 1 0-1.272.898.898 0 0 1 1.272 0l3.002 3.001a.9.9 0 0 1-.636 1.536" fill="rgba(103, 26, 29, 1)" stroke="none"/>
  <path fill-rule="evenodd" d="M21.415 35.835a.9.9 0 0 1-.636-1.536l.146-.146a.9.9 0 1 1 1.272 1.273l-.145.145a.897.897 0 0 1-.637.264" fill="rgba(103, 26, 29, 1)" stroke="none"/>
  <path fill-rule="evenodd" d="M18.478 38.772a.9.9 0 0 1-.636-1.536l.872-.873a.9.9 0 0 1 1.273 1.273l-.873.873a.9.9 0 0 1-.636.263" fill="rgba(103, 26, 29, 1)" stroke="none"/>
</svg>
</g></svg></g></g>
<!-- /image 22660 -->

<!-- image 82733 -->
<g id="transformed-82733" data-image="82733" transform="translate(8.89615164183514, 148.9905668772057) rotate(1, 44.10384835816486, 53.009433122794285)"><g><svg version="1.1" width="88.20769671632972px" height="106.01886624558857px" viewBox="0 0 88.20769671632972 106.01886624558857"><g id="original-82733"><svg xmlns="http://www.w3.org/2000/svg" viewBox="0 0 40 48" xmlns:xlink="http://www.w3.org/1999/xlink" version="1.1" preserveAspectRatio="xMidYMid meet">
  <path fill-rule="evenodd" d="M28.785 24.235c0 7.704-6.245 13.95-13.95 13.95-7.704 0-13.95-6.246-13.95-13.95 0-7.704 6.246-13.95 13.95-13.95 7.705 0 13.95 6.246 13.95 13.95" fill="rgba(255, 255, 255, 1)" stroke="none"/>
  <path fill-rule="evenodd" d="M31.665 27.115c0 7.704-6.246 13.95-13.95 13.95-7.704 0-13.95-6.246-13.95-13.95 0-7.705 6.246-13.95 13.95-13.95 7.704 0 13.95 6.245 13.95 13.95" fill="rgba(237, 152, 109, 1)" stroke="none"/>
  <path fill-rule="evenodd" d="M14.835 11.185c-7.196 0-13.05 5.854-13.05 13.05 0 7.196 5.854 13.05 13.05 13.05 7.196 0 13.05-5.854 13.05-13.05 0-7.196-5.854-13.05-13.05-13.05zm0 27.9c-8.189 0-14.85-6.662-14.85-14.85 0-8.189 6.661-14.85 14.85-14.85s14.85 6.661 14.85 14.85c0 8.188-6.661 14.85-14.85 14.85z" fill="rgba(103, 26, 29, 1)" stroke="none"/>
  <path fill-rule="evenodd" d="M16.949 12.805c-5.18 1.388-10.886-3.114-10.886-3.114s2.691-6.753 7.871-8.14C19.113.163 24.82 4.665 24.82 4.665s-2.691 6.752-7.871 8.14" fill="rgba(255, 255, 255, 1)" stroke="none"/>
  <path fill-rule="evenodd" d="M19.829 15.685c-5.18 1.387-10.887-3.115-10.887-3.115s2.692-6.752 7.871-8.14C21.993 3.042 27.7 7.544 27.7 7.544s-2.692 6.753-7.871 8.141" fill="rgba(45, 176, 141, 1)" stroke="none"/>
  <path fill-rule="evenodd" d="M7.186 9.39c1.506 1.024 5.747 3.56 9.531 2.545 3.796-1.017 6.192-5.33 6.98-6.969-1.505-1.023-5.746-3.56-9.531-2.546-3.785 1.014-6.189 5.33-6.98 6.97zm7.669 4.581c-4.756 0-9.137-3.406-9.35-3.574a.899.899 0 0 1-.278-1.04c.116-.293 2.921-7.188 8.474-8.676 5.55-1.488 11.429 3.082 11.677 3.277a.9.9 0 0 1 .278 1.04c-.117.293-2.922 7.189-8.474 8.676a8.95 8.95 0 0 1-2.327.297z" fill="rgba(103, 26, 29, 1)" stroke="none"/>
  <path fill-rule="evenodd" d="M8.444 16.945a.901.901 0 0 1-.864-.651c-.013-.047-1.396-4.761-4.238-8.138a.9.9 0 0 1 1.377-1.159c3.094 3.676 4.531 8.591 4.591 8.799a.9.9 0 0 1-.866 1.149" fill="rgba(103, 26, 29, 1)" stroke="none"/>
  <path fill-rule="evenodd" d="M1.548 6.193a.9.9 0 0 1-.503-.154 8.565 8.565 0 0 0-.598-.368.899.899 0 1 1 .876-1.572c.249.138.492.288.729.448a.9.9 0 0 1-.504 1.646" fill="rgba(103, 26, 29, 1)" stroke="none"/>
  <path fill-rule="evenodd" d="M36.885 31.975c0 6.909-5.601 12.51-12.51 12.51s-12.51-5.601-12.51-12.51h25.02" fill="rgba(255, 255, 255, 1)" stroke="none"/>
  <path fill-rule="evenodd" d="M39.765 34.855c0 6.909-5.601 12.51-12.51 12.51s-12.51-5.601-12.51-12.51h25.02" fill="rgba(237, 152, 109, 1)" stroke="none"/>
  <path fill-rule="evenodd" d="M12.799 32.875c.462 5.983 5.477 10.71 11.576 10.71s11.114-4.727 11.576-10.71H12.799zm11.576 12.51c-7.394 0-13.41-6.016-13.41-13.41a.9.9 0 0 1 .9-.9h25.02a.9.9 0 0 1 .9.9c0 7.394-6.016 13.41-13.41 13.41z" fill="rgba(103, 26, 29, 1)" stroke="none"/>
  <path fill-rule="evenodd" d="M24.375 41.215a.9.9 0 0 1-.9-.9v-4.766a.9.9 0 0 1 1.8 0v4.766a.9.9 0 0 1-.9.9" fill="rgba(103, 26, 29, 1)" stroke="none"/>
  <path fill-rule="evenodd" d="M30.273 38.772a.9.9 0 0 1-.637-.263l-3.001-3.002a.898.898 0 0 1 0-1.272.898.898 0 0 1 1.272 0l3.002 3.001a.9.9 0 0 1-.636 1.536" fill="rgba(103, 26, 29, 1)" stroke="none"/>
  <path fill-rule="evenodd" d="M21.415 35.835a.9.9 0 0 1-.636-1.536l.146-.146a.9.9 0 1 1 1.272 1.273l-.145.145a.897.897 0 0 1-.637.264" fill="rgba(103, 26, 29, 1)" stroke="none"/>
  <path fill-rule="evenodd" d="M18.478 38.772a.9.9 0 0 1-.636-1.536l.872-.873a.9.9 0 0 1 1.273 1.273l-.873.873a.9.9 0 0 1-.636.263" fill="rgba(103, 26, 29, 1)" stroke="none"/>
</svg>
</g></svg></g></g>
<!-- /image 82733 -->
</defs><rect x="0" y="0" width="250" height="250" fill="rgba(113, 24, 144, 1)"></rect><use xlink:href="#transformed-37767" transform="translate(-250, -250)"></use><use xlink:href="#transformed-37767" transform="translate(0, -250)"></use><use xlink:href="#transformed-37767" transform="translate(250, -250)"></use><use xlink:href="#transformed-37767" transform="translate(-250, 0)"></use><use xlink:href="#transformed-37767" transform="translate(0, 0)"></use><use xlink:href="#transformed-37767" transform="translate(250, 0)"></use><use xlink:href="#transformed-37767" transform="translate(-250, 250)"></use><use xlink:href="#transformed-37767" transform="translate(0, 250)"></use><use xlink:href="#transformed-37767" transform="translate(250, 250)"></use><use xlink:href="#transformed-22660" transform="translate(-250, -250)"></use><use xlink:href="#transformed-22660" transform="translate(0, -250)"></use><use xlink:href="#transformed-22660" transform="translate(250, -250)"></use><use xlink:href="#transformed-22660" transform="translate(-250, 0)"></use><use xlink:href="#transformed-22660" transform="translate(0, 0)"></use><use xlink:href="#transformed-22660" transform="translate(250, 0)"></use><use xlink:href="#transformed-22660" transform="translate(-250, 250)"></use><use xlink:href="#transformed-22660" transform="translate(0, 250)"></use><use xlink:href="#transformed-22660" transform="translate(250, 250)"></use><use xlink:href="#transformed-82733" transform="translate(-250, -250)"></use><use xlink:href="#transformed-82733" transform="translate(0, -250)"></use><use xlink:href="#transformed-82733" transform="translate(250, -250)"></use><use xlink:href="#transformed-82733" transform="translate(-250, 0)"></use><use xlink:href="#transformed-82733" transform="translate(0, 0)"></use><use xlink:href="#transformed-82733" transform="translate(250, 0)"></use><use xlink:href="#transformed-82733" transform="translate(-250, 250)"></use><use xlink:href="#transformed-82733" transform="translate(0, 250)"></use><use xlink:href="#transformed-82733" transform="translate(250, 250)"></use></svg>